<?xml version="1.0" standalone="no"?>
<!DOCTYPE svg PUBLIC "-//W3C//DTD SVG 20010904//EN"
 "http://www.w3.org/TR/2001/REC-SVG-20010904/DTD/svg10.dtd">
<svg version="1.0" xmlns="http://www.w3.org/2000/svg"
 width="1012.000000pt" height="1012.000000pt" viewBox="0 0 1012.000000 1012.000000"
 preserveAspectRatio="xMidYMid meet">
<metadata>
Created by potrace 1.14, written by Peter Selinger 2001-2017
</metadata>
<g transform="translate(0.000000,1012.000000) scale(0.100000,-0.100000)"
fill="#000000" stroke="none">
<path d="M10 5055 l0 -2995 5055 0 5055 0 0 2995 0 2995 -5055 0 -5055 0 0
-2995z m2280 871 c0 -868 4 -1391 10 -1457 47 -458 204 -741 485 -875 144 -68
338 -96 533 -75 121 12 264 53 332 93 233 142 355 349 423 723 21 119 21 132
25 1533 l3 1412 445 0 445 0 -4 -1532 c-3 -1674 -1 -1598 -61 -1838 -86 -338
-267 -607 -525 -779 -114 -76 -176 -107 -302 -154 -264 -99 -522 -138 -904
-138 -337 0 -578 33 -816 111 -504 165 -811 509 -918 1030 -45 217 -45 187
-48 1778 l-4 1522 441 0 440 0 0 -1354z m6620 995 l0 -359 -782 -1831 -782
-1831 -468 0 c-257 0 -468 2 -468 5 0 3 237 547 527 1208 289 661 651 1488
804 1837 l278 635 -962 5 -962 5 -3 343 -2 342 1410 0 1410 0 0 -359z"/>
</g>
</svg>
