<?xml version="1.0" encoding="UTF-8"?>
<!-- Generator: Adobe Illustrator 23.0.1, SVG Export Plug-In . SVG Version: 6.00 Build 0)  -->
<!DOCTYPE svg PUBLIC "-//W3C//DTD SVG 1.1//EN" "http://www.w3.org/Graphics/SVG/1.1/DTD/svg11.dtd">
<svg version="1.1" id="svg2" xmlns:x="http://ns.adobe.com/Extensibility/1.0/" xmlns:i="http://ns.adobe.com/AdobeIllustrator/10.0/" xmlns:graph="http://ns.adobe.com/Graphs/1.0/" xmlns:svg="http://www.w3.org/2000/svg" xmlns="http://www.w3.org/2000/svg" xmlns:xlink="http://www.w3.org/1999/xlink" x="0px" y="0px" viewBox="0 0 506.4 300" style="enable-background:new 0 0 506.4 300;" xml:space="preserve">
<style type="text/css">
	.st0{fill:#528DBA;}
	.st1{fill:#FFFFFF;}
</style>
<metadata>
	<sfw xmlns="http://ns.adobe.com/SaveForWeb/1.0/">
		<slices/>
		<sliceSourceBounds bottomLeftOrigin="true" height="300" width="506.4" x="0" y="0"/>
	</sfw>
</metadata>
<g>
	<rect class="st0" width="506.4" height="300"/>
	<path class="st1" d="M249.5,38.4H205v126.7c0,9.4-0.8,17.9-2.4,25.6c-1.5,7.7-4.1,14.3-7.6,19.7c-3.7,5.4-8.3,9.6-14.1,12.6   c-5.8,2.9-12.8,4.3-21.1,4.3c-8.5,0-15.7-1.4-21.4-4.3c-5.8-2.9-10.6-7.2-14.2-12.6c-3.7-5.4-6.3-12-7.8-19.7   c-1.6-7.7-2.4-16.2-2.4-25.6V38.4H70.2v140.2c0,14.7,2.1,27.3,6,37.8c4.1,10.4,9.9,19,17.6,25.6c7.6,6.5,17.1,11.4,28.2,14.5   c11.1,3.2,23.8,4.7,37.8,4.7c14.1,0,26.7-1.5,37.8-4.7c11.1-3.1,20.6-8,28.2-14.5c7.7-6.6,13.6-15.2,17.6-25.6   c4.1-10.5,6-23.1,6-37.8L249.5,38.4L249.5,38.4z"/>
	<polygon class="st1" points="445.8,38.4 304.6,38.4 304.6,72.9 401.4,72.9 320.4,257.8 367.5,257.8 445.8,74.5  "/>
</g>
</svg>